<?xml version="1.0" encoding="UTF-8"?>
<!-- Created with Inkscape (http://www.inkscape.org/) -->
<svg width="871.49" height="311.08" version="1.1" viewBox="0 0 871.49 311.08" xmlns="http://www.w3.org/2000/svg">
 <g transform="translate(297.9 -156.92)">
  <path d="m-165.89 466.8c-4.3928-2.1663-12.383-10.063-16.385-16.194-4.0154-6.1509-4.8589-10.125-3.1201-14.698 0.4011-1.055 0.85063-3.7853 0.99895-6.0674l0.26965-4.1492-5.311-1.8699c-2.9211-1.0285-7.2803-2.9966-9.6872-4.3737-2.4069-1.3771-3.5944-1.6561-5.3824-2.5038-7.49-3.5509-11.162-4.9286-22.391-10.816-2.8664-1.5029-7.3617-4.4606-9.9895-6.5727-2.6278-2.1121-7.2951-5.6177-10.372-7.7902-6.6406-4.689-20.241-18.025-25.259-24.768-5.0025-6.7221-10.419-15.84-15.091-25.407-3.0141-6.1709-4.6815-11.109-6.8052-20.153-3.4272-14.595-4.2008-26.211-2.8472-42.747 1.0553-12.892 2.8594-19.27 10.927-38.632 4.0468-9.7119 14.105-28.138 20.136-36.889 10.365-15.038 22.771-17.348 28.403-5.2869 1.5093 3.232 2.5224 4.3779 2.4686 13.831 0 0 0.21975 6.5968-0.8689 11.435-1.0886 4.8378-8.0259 17.182-8.0259 17.182-11.973 25.631-13.936 31.943-15.343 49.329-0.67809 8.3785-0.56983 11.225 0.75993 19.979 1.8866 12.42 3.3613 15.641 16.201 35.382 15.69 24.123 23.06 29.978 35.003 27.807 8.7112-1.5833 15.299-6.3564 20.005-14.494 1.8197-3.1465 4.9707-7.519 7.0023-9.7167 2.0316-2.1977 5.1246-5.7627 6.8734-7.9223 3.0312-3.7433 13.783-13.355 25.557-22.845 2.999-2.4174 7.5048-6.1935 10.013-8.3912s7.7544-6.1417 11.658-8.7646c9.978-6.704 14.794-10.736 23.319-19.523 7.2639-7.4871 14.999-17.876 18.56-24.928 5.2816-10.458 12.409-20.887 19.277-28.204 12.22-13.021 22.884-20.062 36.562-24.144 18.124-5.4078 39.63-14.39 49.746-20.775 2.7641-1.7449 2.998-2.1597 2.5492-4.5208-0.27182-1.4298-0.98227-3.5706-1.5788-4.7576-1.6335-3.2502-1.3128-6.902 0.94437-10.754 2.505-4.2744 5.9346-6.17 11.157-6.1667 5.3271 3e-3 9.3309 2.193 14.946 8.1734 4.0926 4.3591 5.1492 5.0209 10.496 6.5745 3.2698 0.95011 6.9746 2.626 8.2328 3.7243 1.2582 1.0983 4.6459 3.8917 7.5282 6.2076 6.5392 5.2542 12.598 11.911 14.176 15.576 0.66245 1.5384 1.2398 4.9828 1.2831 7.6544 0.10544 6.5172-2.924 11.615-9.105 15.321-5.2171 3.1284-6.7504 3.1835-15.778 0.56709-3.8526-1.1166-8.8028-2.0402-11-2.0524-4.3017-0.024-11.41 2.154-16.724 5.1242-3.9201 2.191-15.642 11.677-15.642 12.658 0 0.60919 2.263 0.80947 11.388 1.0079 1.4285 0.0311 7.6903-0.24055 13.915-0.60358 9.8015-0.57162 11.692-0.48245 14.111 0.66558 5.9542 2.8254 5.245 9.5343-1.6494 15.603-6.919 6.0903-17.295 9.6366-32.97 11.268-4.6151 0.48033-10.009 1.4882-11.987 2.2398-4.951 1.8812-12.168 6.6145-17.937 11.765-2.6613 2.3755-9.1269 7.1987-14.368 10.718-5.6101 3.7672-10.33 7.5771-11.476 9.2631-2.3484 3.456-9.9119 19.409-11.316 23.869-0.96826 3.0747-6.3505 15.266-11.404 25.833-1.3297 2.7801-4.5685 7.9555-7.1973 11.501-7.9087 10.667-8.8975 12.863-7.0808 15.733 0.57003 0.90036 1.856 0.38828 6.5224-2.5973 6.8345-4.3727 9.8623-4.765 12.783-1.6563 1.6384 1.7441 1.9274 2.8235 1.8728 6.9926-0.03711 2.8366-0.6021 5.9483-1.3303 7.3276-1.4166 2.6831-5.3731 6.548-8.9941 8.7858-1.3186 0.81489-4.7661 3.39-7.661 5.7224-2.8949 2.3324-7.3214 5.1829-9.8367 6.3344-5.6174 2.5717-8.8753 2.1848-13.118-1.5577-1.622-1.4309-4.339-3.4007-6.0378-4.3774l-3.0886-1.7758-6.9945 5.9489c-13.016 11.07-26.722 18.599-39.437 21.662-4.5937 1.1068-8.8411 2.013-9.4386 2.0139-0.6265 7.9e-4 -1.1541 0.97517-1.2464 2.3017-0.0881 1.265-1.306 4.8628-2.7066 7.9951-2.4316 5.4382-2.5055 5.899-1.638 10.219 1.8096 9.0109 0.68378 15.431-3.1807 18.138-2.3004 1.6113-3.5983 1.6138-6.8435 0.0134z" fill="#000000" stroke-width="15.102"/>
  <g transform="translate(0 .99974)" stroke-width="18.898" aria-label="Mink">
   <path d="m27.54 306.74 41.827 130.77 41.827-130.77h25.977v160.26h-20.143v-62.411l1.8712-62.521-41.937 124.93h-15.41l-41.717-124.49 1.8712 62.08v62.411h-20.143v-160.26z"/>
   <path d="m175.11 467h-19.483v-119.1h19.483zm1.541-150.69q0 4.9532-2.7518 8.2554-2.7518 3.3022-8.3655 3.3022-5.5036 0-8.2554-3.3022t-2.7518-8.2554 2.7518-8.3655q2.7518-3.4122 8.2554-3.4122t8.2554 3.5223q2.8619 3.4122 2.8619 8.2554z"/>
   <path d="m212.38 347.9 0.55036 12.878q11.337-15.08 28.949-15.08 31.591 0 32.031 42.157v79.142h-19.373v-78.261q0-13.979-4.7331-19.813-4.623-5.9439-13.979-5.9439-7.2647 0-13.099 4.8432-5.7237 4.8432-9.246 12.658v86.516h-19.483v-119.1z"/>
   <path d="m321.1 412.51-10.347 11.888v42.598h-19.483v-169.07h19.483v101.16l37.094-51.183h23.335l-37.865 49.752 42.818 69.345h-22.675z"/>
  </g>
  <path d="m429.94 354.74-35.805 47.545 35.297 60.778" fill="none" stroke="#f3591a" stroke-width="19.639"/>
  <path d="m526.02 354.74 35.805 47.545-35.297 60.778" fill="none" stroke="#f3591a" stroke-width="19.639"/>
  <text x="177.76996" y="576.35529" fill="#000000" font-family="sans-serif" font-size="40px" stroke-width="18.898" style="line-height:1.25" xml:space="preserve"><tspan x="177.76996" y="576.35529"/></text>
  <path d="m458.35 464.99 43.84-135.91" fill="none" stroke="#f3591a" stroke-width="19.639"/>
 </g>
</svg>
