<?xml version="1.0" encoding="UTF-8"?>
<!-- Created with Inkscape (http://www.inkscape.org/) -->
<svg width="43.424mm" height="15.29mm" version="1.1" viewBox="0 0 43.424 15.29" xml:space="preserve"
  xmlns="http://www.w3.org/2000/svg">
  <g transform="translate(-10.728 -81.305)">
    <g transform="matrix(.26458 0 0 .26458 -33.694 40.55)" style="shape-inside:url(#rect827-6-7);white-space:pre"
      aria-label="Mink">
      <path
        d="m174.03 182.27 13.12 25.227 13.12-25.227 3.2 29.547h2.9333l-4.32-38.773-14.933 28.693-14.933-28.693-4.32 38.773h2.9333z" />
      <path
        d="m213.17 176.19c0 1.0667 0.85334 1.9733 1.9733 1.9733s1.9733-0.90667 1.9733-1.9733c0-1.0667-0.85333-1.9733-1.9733-1.9733s-1.9733 0.90667-1.9733 1.9733zm0.58667 11.093v24.533h2.7733v-24.533z" />
      <path
        d="m241.28 196.03v15.787h2.7733v-16.107c0-5.44-2.7733-8.96-7.8933-8.96-3.6267 0-6.4533 2.08-7.84 5.6533v-5.12h-2.7733v24.533h2.7733v-14.933c0-4.2133 3.04-7.52 7.2-7.52 3.9467 0 5.76 2.5067 5.76 6.6667z" />
      <path
        d="m265.49 187.29-10.507 9.2267v-26.293h-2.7733v41.6h2.7733v-13.227l11.573 13.227h3.52l-12.587-14.4 11.573-10.133z" />
    </g>
    <path
      d="m47.744 96.346c0.21323-0.10515 0.60108-0.48847 0.79534-0.78608 0.1949-0.29857 0.23585-0.49147 0.15145-0.71345-0.01942-0.05126-0.04132-0.18374-0.0485-0.29451l-0.01307-0.2014 0.2578-0.09074c0.14178-0.04988 0.35338-0.14546 0.47022-0.2123 0.11684-0.06681 0.17448-0.08043 0.26127-0.12154 0.36357-0.17236 0.5418-0.23924 1.0869-0.52502 0.13913-0.07298 0.35734-0.21652 0.48489-0.31904 0.12756-0.10252 0.35412-0.27268 0.50346-0.37813 0.32234-0.22761 0.98252-0.87495 1.2261-1.2023 0.24282-0.3263 0.50574-0.76889 0.73253-1.2333 0.1463-0.29954 0.22724-0.53924 0.33033-0.97824 0.16636-0.70845 0.20391-1.2723 0.1382-2.075-0.05126-0.62579-0.13879-0.93538-0.5304-1.8752-0.19644-0.47142-0.68466-1.3658-0.97742-1.7906-0.50312-0.72995-1.1053-0.84208-1.3787-0.25662-0.07325 0.15689-0.12244 0.21251-0.11984 0.67137 0 0-0.01067 0.32021 0.04215 0.55505 0.05282 0.23483 0.38958 0.83403 0.38958 0.83403 0.58118 1.2441 0.67646 1.5505 0.74476 2.3945 0.03294 0.4067 0.0277 0.54487-0.0369 0.9698-0.09157 0.60287-0.16315 0.75921-0.7864 1.7175-0.76161 1.1709-1.1194 1.4552-1.6991 1.3498-0.42285-0.07684-0.74263-0.30855-0.97107-0.70355-0.08835-0.15274-0.24127-0.36498-0.3399-0.47166-0.09862-0.10668-0.24875-0.27972-0.33363-0.38455-0.14714-0.18171-0.66904-0.64827-1.2406-1.1089-0.14557-0.11734-0.36428-0.30064-0.48604-0.40732-0.12175-0.10668-0.3764-0.29812-0.56589-0.42544-0.48434-0.32542-0.71812-0.52114-1.1319-0.94766-0.35259-0.36343-0.72806-0.8677-0.90091-1.21-0.25638-0.50763-0.60234-1.0139-0.93572-1.369-0.59317-0.63204-1.1108-0.97382-1.7747-1.172-0.87974-0.2625-1.9237-0.6985-2.4147-1.0084-0.13416-0.08466-0.14552-0.10484-0.12374-0.21944 0.01316-0.06948 0.04767-0.17332 0.07666-0.23093 0.07933-0.15777 0.06368-0.33504-0.04583-0.52202-0.1216-0.20748-0.28808-0.29949-0.54157-0.29933-0.25858 1.47e-4 -0.45293 0.10646-0.72549 0.39674-0.19866 0.2116-0.24995 0.24372-0.50948 0.31913-0.15873 0.04611-0.33856 0.12748-0.39963 0.18078-0.06101 0.05328-0.22551 0.1889-0.36542 0.30132-0.31742 0.25504-0.61151 0.57817-0.68812 0.75607-0.03212 0.07463-0.06019 0.24187-0.0623 0.37156-0.0055 0.31635 0.14193 0.5638 0.44196 0.74369 0.25325 0.15185 0.32767 0.15453 0.76588 0.02752 0.18701-0.0542 0.4273-0.09904 0.53394-0.09963 0.20881-0.0018 0.55385 0.10456 0.81179 0.24873 0.19029 0.10636 0.75928 0.56682 0.75928 0.61443 0 0.02954-0.10985 0.03929-0.55278 0.04887-0.06939 0.0018-0.37328-0.01169-0.67544-0.02936-0.47577-0.02779-0.56754-0.02347-0.68496 0.0323-0.28902 0.13716-0.25459 0.4628 0.08006 0.75738 0.33586 0.29562 0.83952 0.46777 1.6004 0.54696 0.22402 0.02337 0.48585 0.07224 0.58185 0.10872 0.24033 0.09129 0.59065 0.32107 0.87069 0.57109 0.12918 0.11531 0.44301 0.34942 0.69743 0.52026 0.27232 0.18286 0.50142 0.36779 0.55705 0.44963 0.11399 0.16776 0.48112 0.94212 0.54928 1.1586 0.04702 0.14925 0.30826 0.74102 0.55355 1.2539 0.0646 0.13495 0.22176 0.38616 0.34936 0.55827 0.3839 0.51778 0.4319 0.62438 0.34371 0.76369-0.0277 0.04371-0.09009 0.01877-0.3166-0.12608-0.33174-0.21225-0.47873-0.2313-0.6205-0.08043-0.07951 0.08466-0.09355 0.13706-0.09092 0.33943 0.0018 0.13769 0.02927 0.28873 0.0646 0.35568 0.06874 0.13024 0.26081 0.31785 0.43658 0.42648 0.06405 0.03957 0.23135 0.16455 0.37188 0.27776 0.14052 0.11322 0.35538 0.25158 0.47748 0.30749 0.27267 0.12482 0.43082 0.10605 0.63676-0.07565 0.07877-0.06939 0.21062-0.16508 0.29308-0.2125l0.14992-0.08623 0.33951 0.28877c0.6318 0.53734 1.2971 0.90281 1.9143 1.0515 0.22299 0.05374 0.42916 0.09771 0.45816 0.09776 0.03046 2.8e-5 0.05604 0.0473 0.06055 0.11172 0.0037 0.06147 0.06341 0.23605 0.13137 0.38809 0.11804 0.26397 0.12163 0.28634 0.07951 0.49604-0.08779 0.43739-0.03322 0.74903 0.1544 0.88043 0.11166 0.07822 0.17466 0.07841 0.33219 7.45e-4z"
      fill="#f0581a" stroke-width=".73306" />
  </g>
</svg>